<svg xmlns="http://www.w3.org/2000/svg" width="751" height="37" fill="none"><path fill="#000" fill-rule="evenodd" d="M133.514 13.398c-8.198 1.534-15.893 3.756-22.833 6.87-.756.344-.985.825-1.053 1.031-.115.367-.069.71.114 1.03.115.207.298.459.687.62.275.114.985.205 1.924.182 1.603-.023 4.077-.206 5.268-.206 4.076.046 8.153.023 12.229.092 12.986.229 15.253.412 31.948.275 19.49-.16 39.026-.436 58.538-.848C158.318 25.88 96.39 29.887 34.784 33.621a1.254 1.254 0 0 0-1.168 1.328 1.24 1.24 0 0 0 1.328 1.19C178.7 27.438 324.037 17.178 468.893 16.514l21.367.48c42.896 1.008 85.814 2.222 128.664 4.1 13.947.618 27.895 1.305 41.865 1.947l12.413.55c3.344.137 11.955.64 13.168.664 1.1.022 1.375-.962 1.398-1.008.068-.32.022-.687-.252-1.03-.069-.092-.252-.344-.665-.459-.068 0-.389-.046-1.053-.114-34.445-2.817-68.981-4.764-103.586-6 4.649.045 9.298.068 13.947.114 35.842.275 71.775 1.26 107.594 0 8.153-.275 16.329-.596 24.46-.985 5.473-.252 19.558.069 21.55-.527.916-.252 1.122-.893 1.145-1.213.023-.367-.045-.78-.458-1.146-.183-.183-.755-.48-1.832-.71-35.154-7.626-76.287-5.473-112.082-7.603-97.22-5.84-194.096-1.947-291.292 1.603-83.89 3.07-167.781 3.23-251.625 7.398-30.689 1.511-62.34-.23-92.593 5.542a1.267 1.267 0 0 0-1.008 1.465 1.273 1.273 0 0 0 1.489 1.008c30.116-5.748 61.652-3.985 92.227-5.496 13.26-.664 26.52-1.214 39.78-1.695zm259.366 1.695c-51.369-.802-102.738-1.214-154.153-.962-35.269.16-86.662-6.55-121.702 6.275h.641c4.077.046 8.153 0 12.23.092 12.963.229 15.23.412 31.88.274a5170 5170 0 0 0 127.816-2.702c34.468-1.145 68.89-2.176 103.288-2.977m347.493-2.955c-33.23-5.817-70.904-4.076-103.998-6.046C539.247.252 442.44 4.146 345.336 7.695c-43.4 1.604-86.776 2.405-130.13 3.39 8.314.32 16.261.55 23.521.527 73.492-.367 146.962.618 220.455 2.175 45.644-.687 91.288-.939 137-.572 35.819.298 71.683 1.26 107.502.023 8.131-.275 16.284-.596 24.414-.985 2.771-.115 7.787-.092 12.275-.115" clip-rule="evenodd"/></svg>